<?xml version="1.0" encoding="UTF-8" standalone="no"?>
<svg
   width="577.00869"
   height="614.65067"
   viewBox="0 0 577.00869 614.65067"
   role="img"
   artist="Katerina Limpitsouni"
   source="https://undraw.co/"
   version="1.1"
   id="svg27"
   sodipodi:docname="boy1.svg"
   inkscape:version="1.3.2 (091e20e, 2023-11-25, custom)"
   xmlns:inkscape="http://www.inkscape.org/namespaces/inkscape"
   xmlns:sodipodi="http://sodipodi.sourceforge.net/DTD/sodipodi-0.dtd"
   xmlns="http://www.w3.org/2000/svg"
   xmlns:svg="http://www.w3.org/2000/svg">
  <defs
     id="defs27" />
  <sodipodi:namedview
     id="namedview27"
     pagecolor="#ffffff"
     bordercolor="#000000"
     borderopacity="0.25"
     inkscape:showpageshadow="2"
     inkscape:pageopacity="0.0"
     inkscape:pagecheckerboard="0"
     inkscape:deskcolor="#d1d1d1"
     inkscape:zoom="0.67762064"
     inkscape:cx="281.86863"
     inkscape:cy="474.45426"
     inkscape:window-width="1920"
     inkscape:window-height="1009"
     inkscape:window-x="1912"
     inkscape:window-y="-8"
     inkscape:window-maximized="1"
     inkscape:current-layer="svg27" />
  <circle
     cx="287.48441"
     cy="335.01639"
     fill="#ffb8b8"
     id="circle16"
     r="126.95133"
     style="stroke-width:4.38464" />
  <path
     d="m 143.48643,251.60084 c 14.25527,-22.05375 41.00605,-36.75208 66.93902,-32.62175 a 91.411019,91.411019 0 0 1 153.16325,-53.31764 28.425063,28.425063 0 0 1 27.79762,-2.78196 58.610564,58.610564 0 0 1 22.58358,18.12751 131.54167,131.54167 0 0 1 18.40643,133.8205 c 3.16939,-11.52179 -8.37734,-22.36114 -20.04408,-24.94668 -11.66574,-2.58549 -23.90337,-0.13943 -35.73405,-1.82314 -15.16306,-2.15755 -28.79342,-10.95384 -43.98046,-12.93346 -12.76369,-1.66371 -25.59902,1.60868 -38.04553,4.88887 -12.4466,3.27972 -25.2491,6.62472 -38.03064,5.10702 -12.78249,-1.51775 -29.24731,46.92286 -29.02633,81.04133 0.042,6.46573 -1.28973,14.76712 -7.60849,16.13886 -7.78151,1.68967 -12.29064,-9.05024 -19.69717,-11.97669 a 13.702401,13.702401 0 0 0 -16.80673,8.9373 22.339751,22.339751 0 0 0 4.26516,20.00511 66.013855,66.013855 0 0 0 16.00487,13.88379 l -3.0504,2.53699 c -5.074,6.70321 -15.59897,6.99351 -22.91256,2.84647 a 49.451526,49.451526 0 0 1 -16.45078,-18.73118 c -13.53039,-22.50462 -25.39909,-46.483 -30.17414,-72.30447 -4.77505,-25.82146 -1.85277,-53.84309 12.40143,-75.89678 z"
     fill="#2f2e41"
     id="path17"
     style="stroke-width:4.38464" />
</svg>
