<?xml version="1.0" encoding="UTF-8" standalone="no"?>
<svg
   width="577"
   height="615"
   viewBox="0 0 577.00001 615.00001"
   role="img"
   artist="Katerina Limpitsouni"
   source="https://undraw.co/"
   version="1.1"
   id="svg19"
   sodipodi:docname="undraw_shopping-bags_nfsf.svg"
   inkscape:version="1.3.2 (091e20e, 2023-11-25, custom)"
   xmlns:inkscape="http://www.inkscape.org/namespaces/inkscape"
   xmlns:sodipodi="http://sodipodi.sourceforge.net/DTD/sodipodi-0.dtd"
   xmlns="http://www.w3.org/2000/svg"
   xmlns:svg="http://www.w3.org/2000/svg">
  <defs
     id="defs19" />
  <sodipodi:namedview
     id="namedview19"
     pagecolor="#ffffff"
     bordercolor="#000000"
     borderopacity="0.25"
     inkscape:showpageshadow="2"
     inkscape:pageopacity="0.0"
     inkscape:pagecheckerboard="0"
     inkscape:deskcolor="#d1d1d1"
     inkscape:zoom="0.40743857"
     inkscape:cx="260.16192"
     inkscape:cy="384.10698"
     inkscape:window-width="1920"
     inkscape:window-height="1009"
     inkscape:window-x="-8"
     inkscape:window-y="-8"
     inkscape:window-maximized="1"
     inkscape:current-layer="svg19" />
  <ellipse
     cx="-349.12848"
     cy="317.68533"
     fill="#f8a8ab"
     id="circle12"
     rx="104.73755"
     ry="105.05061"
     transform="scale(-1,1)"
     style="stroke-width:4.70799" />
  <path
     d="m 320.35856,307.26517 c 17.53463,-0.51865 29.05201,-18.29427 35.86842,-34.51393 6.81635,-16.21966 13.8208,-34.84398 30.08615,-41.53931 13.30376,-5.46942 36.76159,31.54347 47.24472,21.68909 10.95327,-10.27875 0.28195,-63.0398 -11.32934,-72.51698 -11.61135,-9.47719 -27.50063,-11.31605 -42.44973,-12.0233 -36.47949,-1.69741 -73.19401,1.27305 -108.96841,8.76993 -22.14154,4.62072 -44.89423,11.59895 -60.87748,27.63001 -20.21418,20.36888 -25.38524,51.06365 -26.84255,79.77811 -1.50429,29.37456 0.18812,60.11647 14.43196,85.81333 14.24393,25.69685 44.04808,44.65122 72.62995,38.09734 2.86758,-15.55956 -0.0471,-31.54347 -1.17522,-47.38593 -1.08125,-15.79531 0.0471,-32.86368 9.68398,-45.45277 9.63698,-12.5891 30.18018,-17.58702 41.36849,-6.41243"
     fill="#2f2e43"
     id="path12"
     style="stroke-width:4.70799" />
  <path
     d="m 191.50508,343.66511 c -10.48317,-7.68548 -23.03475,-14.14505 -35.91538,-12.54195 -13.91486,1.69742 -25.71429,13.20206 -29.28704,26.82846 -3.57272,13.6264 0.42293,28.62016 9.07287,39.7476 8.60279,11.12744 21.43641,18.48287 34.9752,22.16058 7.8506,2.12177 16.45339,3.01762 23.92792,-0.18859 11.00028,-4.76217 16.97048,-18.86008 12.64558,-30.08182"
     fill="#2f2e43"
     id="path13"
     style="stroke-width:4.70799" />
</svg>
